<?xml version="1.0" standalone="no"?>
<!DOCTYPE svg PUBLIC "-//W3C//DTD SVG 1.1//EN" "http://www.w3.org/Graphics/SVG/1.1/DTD/svg11.dtd">
<svg xmlns="http://www.w3.org/2000/svg">
<metadata>Copyright (C) 2016 by original authors @ fontello.com</metadata>
<defs>
<font id="fontello" horiz-adv-x="1000" >
<font-face font-family="fontello" font-weight="400" font-stretch="normal" units-per-em="1000" ascent="850" descent="-150" />
<missing-glyph horiz-adv-x="1000" />
<glyph glyph-name="compare_p" unicode="&#xe800;" d="M320 307c25-35 52-72 86-108-77-88-188-168-406-168v160c173 0 243 57 305 137 5-7 10-14 15-21z m171 122c15-21 30-42 45-61 53 59 119 100 246 108l-39-98c-2-4 0-9 3-12 2-1 4-2 6-2 2 0 4 1 6 2l238 184c3 2 4 4 4 8 0 3-1 5-4 7l-238 184c-4 2-9 2-12 0-3-3-5-8-3-12l40-101c-171-9-272-68-344-138 19-24 36-47 52-69z m267-95c-2 1-4 2-6 2-2 0-4-1-6-2-3-3-5-8-3-12l39-98c-181 11-239 91-310 191-81 113-182 254-472 254v-160c208 0 267-83 342-187 78-110 175-244 441-258l-40-101c-2-4 0-9 3-12 3-2 8-2 12 0l238 184c3 2 4 5 4 8s-1 5-4 7l-238 184z" horiz-adv-x="1000" />

<glyph glyph-name="map" unicode="&#xe801;" d="M813-25c0-109-196-125-313-125-117 0-312 16-312 125 0 81 109 111 213 121l17-62c-97-9-168-32-168-59 0-35 112-63 250-63 138 0 250 28 250 63 0 27-70 50-168 59l18 62c103-10 213-40 213-121z m-199 400l-114-400-117 410c-74 43-125 123-125 215 0 138 112 250 250 250 138 0 250-112 250-250 0-100-59-185-144-225z m11 225c0 69-56 125-125 125-69 0-125-56-125-125 0-69 56-125 125-125 69 0 125 56 125 125z" horiz-adv-x="1000" />

<glyph glyph-name="phone_2" unicode="&#xe802;" d="M500 850c-276 0-500-224-500-500s224-500 500-500c45 0 90 6 138 19 96 43 148 148 125 251l1 0c15 15 21 43 15 63l-3 8c-7 20-28 41-48 46l-74 20c-20 6-49-2-64-16l-26-27c-97 26-174 102-200 200l27 26c14 15 22 44 16 64l-20 74c-5 20-26 41-46 48l-8 3c-20 6-48 0-62-15l-40-40c-8-7-12-27-12-28-2-127 48-249 138-339 90-89 212-139 338-138 1 0 5 1 11 3 0-62-35-119-89-144-38-10-77-16-117-16-241 0-437 197-437 438s196 438 437 438 438-197 438-438c0-72-18-141-51-204-8-16-2-34 13-43 15-8 34-2 42 13 38 72 58 153 58 234 0 276-224 500-500 500z" horiz-adv-x="1000" />

<glyph glyph-name="mail_1" unicode="&#xe803;" d="M973 527l-296 296c-36 36-94 36-129 0l-521-521c-36-35-36-93 0-129l296-296c36-36 94-36 129 0l521 521c36 35 36 93 0 129z m-595-614c-4 1-8 3-12 7l-296 296c0 0 0 0 0 1l308 0v-304z m-290 364l485 485 0-471c0-7-6-14-14-14l-471 0z m351-328v268h120c20 0 39 7 53 21 14 14 22 33 22 53v120l267 0-462-462z m195 523v309c0 0 0-1 0-1l296-296c4-4 6-8 7-12l-303 0z m-604 249h311c16 0 30 13 30 30 0 16-14 29-30 29h-311c-17 0-30-13-30-29 0-17 13-30 30-30z m0-116h195c16 0 29 13 29 29 0 17-13 30-29 30h-195c-17 0-30-13-30-30 0-16 13-29 30-29z m0-113h126c16 0 29 13 29 30s-13 29-29 29h-126c-17 0-30-13-30-29s13-30 30-30z m126-545h-126c-17 0-30-13-30-29 0-16 13-30 30-30h126c16 0 29 14 29 30 0 16-13 29-29 29z" horiz-adv-x="1000" />

<glyph glyph-name="arr2_down" unicode="&#xe804;" d="M0 526l148 148 352-351 352 351 148-148-352-352-148-148-148 148z" horiz-adv-x="1000" />

<glyph glyph-name="search" unicode="&#xe805;" d="M637 850c-198 0-359-160-359-357 0-57 28-131 28-131 5-15 14-40 20-55 0 0 5-21 5-44 0-15-18-42-39-61-21 21-55 21-76 0l-197-197c-21-21-21-55 0-77l63-62c10-10 24-16 38-16 14 0 28 6 38 16l197 197c10 10 16 24 16 38 0 14-6 28-16 38l-3 3c17 23 45 47 62 47 23 0 38-6 38-6 15-5 39-14 54-20 0 0 74-28 132-28 198 0 359 160 359 358 0 197-161 357-360 357z m187-534c-47-47-111-75-182-75-72 0-136 28-183 75-46 46-75 110-75 181 0 71 29 135 75 182 47 46 111 75 183 75 71 0 135-29 182-75 47-47 76-111 76-182 0-71-29-135-76-181z" horiz-adv-x="1000" />

<glyph glyph-name="arr2_up" unicode="&#xe806;" d="M0 174l352 352 148 148 148-148 352-352-148-148-352 351-352-351z" horiz-adv-x="1000" />

<glyph glyph-name="arr2_right" unicode="&#xe807;" d="M0-2l352 352-352 352 148 148 352-351 148-149-148-148-352-352z" horiz-adv-x="648" />

<glyph glyph-name="arr2_left" unicode="&#xe808;" d="M0 350l148 149 352 351 148-148-351-352 351-352-148-148-352 352z" horiz-adv-x="648" />

<glyph glyph-name="new" unicode="&#xe809;" d="M907 350l61 93c11 19 14 41 8 62-7 20-23 37-43 44l-104 40-6 111c-1 22-12 42-29 55-18 12-40 16-61 11l-107-29-70 86c-14 17-34 27-56 27-22 0-42-10-56-26l-70-87-107 29c-21 5-43 1-61-11-17-13-28-33-29-55l-6-111-104-40c-20-7-36-24-43-44-6-21-3-43 9-62l60-93-60-93c-12-18-15-41-9-61 7-21 23-37 43-45l104-40 6-111c1-22 12-42 29-54 18-13 40-17 61-12l107 29 70-86c14-17 34-27 56-27s42 10 56 27l70 86 107-29c21-5 43-1 61 11 17 13 28 33 29 55l6 111 104 40c20 8 36 24 43 45 6 20 3 43-8 61l-61 93z m-638-107l-21 83c-5 22-11 50-14 75l-1 0c-7-28-16-59-26-94l-20-64h-45l66 214h56l21-78c6-23 11-50 13-74h1c5 28 13 57 23 90l19 62h44l-65-214h-51v0z m279 175h-84l-13-45h79l-12-40h-79l-16-50h88l-12-40h-137l65 214h133l-12-39z m189-175h-52l9 92c3 22 5 42 10 66h0c-11-24-21-44-33-66l-48-92h-53l14 214h52l-11-88c-3-26-7-53-10-75h1c10 23 23 49 37 75l44 88h52l-10-90c-3-25-7-48-11-72h1c10 24 23 49 35 74l44 88h50l-121-214z" horiz-adv-x="1000" />

<glyph glyph-name="sale" unicode="&#xe80a;" d="M621 530c-17-17-11-40 2-56l52 53c-5 4-30 27-54 3z m-119-262c-2 2-4 5-7 8l-15 15c-1 0-1-1-2-1-26-27-32-48-17-62 10-11 23-11 34 0 11 11 13 27 7 39l0 1z m498 246l-40 265c-2 16-15 29-31 31l-265 40c-12 1-24-3-32-11l-621-621c-15-14-15-38 0-52l305-305c14-15 38-15 52 0l621 621c8 8 12 20 11 32z m-579-384c-2-27-16-54-42-80-22-22-48-36-62-42-3-1-7 0-8 3l-21 34c-1 2-1 4-1 6 1 2 2 3 4 4 20 7 40 20 54 34 20 20 23 39 10 52-12 12-27 11-61-5-48-23-85-22-111 4-36 36-30 89 15 134 17 17 35 29 54 38 3 1 7 0 9-3l19-34c1-2 1-4 0-6 0-1-2-3-3-4-17-6-31-16-44-29-21-21-19-38-9-47 12-13 29-7 64 9 47 22 82 19 109-8 16-16 25-38 24-60z m166 134l-31-31c-2-2-6-2-8-1l-13 9 0-1c2-20-7-41-24-58-30-30-68-24-89-2-21 20-26 47-15 76 9 24 28 46 43 60l1 2-2 2c-7 6-22 15-45-8-11-11-21-27-26-42-1-2-2-4-4-4-2-1-4-1-5 0l-25 14c-3 1-4 5-3 8 4 12 15 37 41 62 41 41 84 42 124 1l50-49c8-9 20-20 30-28 2-1 3-3 3-5 0-2-1-4-2-5z m63 63l-35-35c-2-2-7-2-9 0l-197 198c-3 2-3 6 0 9l34 35c3 2 7 2 10 0l197-197c3-3 3-7 0-10z m137 146c-9-18-23-37-40-55-23-23-49-36-75-36-26-1-52 10-74 33-36 36-53 98-4 147 21 22 47 31 73 27 21-3 43-15 62-34 5-6 10-11 12-14 2-3 2-7 0-9l-88-88c18-15 44-10 67 13 13 13 22 25 30 39 1 2 3 3 5 3 1 1 3 0 5-1l25-17c3-1 4-5 2-8z m62 140c-23-24-62-24-86 0-24 24-24 63 0 86 24 24 63 24 86 0 24-23 24-62 0-86z" horiz-adv-x="1000" />

<glyph glyph-name="cart" unicode="&#xe80b;" d="M300 50c-55 0-100-45-100-100s45-100 100-100 100 45 100 100-45 100-100 100z m-300 800v-100h100l180-380-70-120c-5-15-10-35-10-50 0-55 45-100 100-100h600v100h-580c-5 0-10 5-10 10v5l45 85h370c40 0 70 20 85 50l180 325c10 10 10 15 10 25 0 30-20 50-50 50h-740l-45 100h-165z m800-800c-55 0-100-45-100-100s45-100 100-100 100 45 100 100-45 100-100 100z" horiz-adv-x="1000" />

<glyph glyph-name="cancel" unicode="&#xe80c;" d="M452 194q18-18 18-43t-18-43q-18-16-43-16t-43 16l-132 152-132-152q-18-16-43-16t-43 16q-16 18-16 43t16 43l138 156-138 158q-16 18-16 43t16 43q18 16 43 16t43-16l132-152 132 152q18 16 43 16t43-16q18-18 18-43t-18-43l-138-158z" horiz-adv-x="470" />

<glyph glyph-name="down-open" unicode="&#xe80d;" d="M564 422l-234-224q-18-18-40-18t-40 18l-234 224q-16 16-16 41t16 41q38 38 78 0l196-188 196 188q40 38 78 0 16-16 16-41t-16-41z" horiz-adv-x="580" />

<glyph glyph-name="left-open" unicode="&#xe80e;" d="M242 626q14 16 39 16t41-16q38-36 0-80l-186-196 186-194q38-44 0-80-16-16-40-16t-40 16l-226 236q-16 16-16 38 0 24 16 40 206 214 226 236z" horiz-adv-x="341" />

<glyph glyph-name="right-open" unicode="&#xe80f;" d="M98 626l226-236q16-16 16-40 0-22-16-38l-226-236q-16-16-40-16t-40 16q-36 36 0 80l186 194-186 196q-36 44 0 80 16 16 41 16t39-16z" horiz-adv-x="340" />

<glyph glyph-name="commerce" unicode="&#xe810;" d="M490 821l-373-202 16 4 446 113-37 70c-10 19-33 25-52 15z m354-211l-28 112c-4 17-20 28-37 28-3 0-6 0-9-1l-174-44-375-95h427 196v0z m-253-479v190c0 40 32 72 72 72h236 18 18 14v146c0 21-17 38-38 38h-23-18-18-186-521-18-18-69-2c-14 0-26-7-33-18-3-6-5-12-5-20v-6-621c0-21 17-38 38-38h873c21 0 38 17 38 38v147h-286c-40 0-72 32-72 72z m391 222c-5 3-11 5-17 6-1 0-2 0-3 0h-13-5-18-43-220c-21 0-38-17-38-38v-190c0-21 17-38 38-38h286 13c1 0 2 0 3 0 6 0 12 2 17 5 11 7 18 19 18 33v190c0 14-7 26-18 32z m-225-189c-34 0-61 28-61 62 0 34 27 61 61 61 34 0 62-27 62-61 0-34-28-62-62-62z" horiz-adv-x="1000" />

<glyph glyph-name="up-open" unicode="&#xe811;" d="M564 280q16-16 16-41t-16-41q-38-38-78 0l-196 188-196-188q-40-38-78 0-16 16-16 41t16 41l234 224q16 16 40 16t40-16z" horiz-adv-x="580" />

<glyph glyph-name="sm_down" unicode="&#xe812;" d="M571 457q0-14-10-25l-250-250q-11-11-25-11t-25 11l-250 250q-11 11-11 25t11 25 25 11h500q14 0 25-11t10-25z" horiz-adv-x="571.4" />

<glyph glyph-name="sm_up" unicode="&#xe813;" d="M571 171q0-14-10-25t-25-10h-500q-15 0-25 10t-11 25 11 26l250 250q10 10 25 10t25-10l250-250q10-11 10-26z" horiz-adv-x="571.4" />

<glyph glyph-name="sm_left" unicode="&#xe814;" d="M357 600v-500q0-14-10-25t-26-11-25 11l-250 250q-10 11-10 25t10 25l250 250q11 11 25 11t26-11 10-25z" horiz-adv-x="357.1" />

<glyph glyph-name="sm_right" unicode="&#xe815;" d="M321 350q0-14-10-25l-250-250q-11-11-25-11t-25 11-11 25v500q0 15 11 25t25 11 25-11l250-250q10-10 10-25z" horiz-adv-x="357.1" />

<glyph glyph-name="truck" unicode="&#xe816;" d="M357 64q0 29-21 51t-50 21-50-21-22-51 22-50 50-21 50 21 21 50z m-214 286h214v143h-88q-7 0-12-5l-109-109q-5-5-5-12v-17z m714-286q0 29-21 51t-50 21-50-21-22-51 22-50 50-21 50 21 21 50z m143 607v-571q0-8-2-15t-8-10-9-6-13-4-13-1-14 0-12 0q0-59-42-101t-101-42-101 42-42 101h-214q0-59-42-101t-101-42-101 42-42 101h-36q-1 0-12 0t-15 0-12 1-13 4-9 6-8 10-2 15q0 15 10 25t25 11v178q0 5 0 20t0 21 2 19 3 21 8 17 13 17l110 110q11 11 28 18t33 7h89v107q0 15 11 26t25 10h571q15 0 25-10t11-26z" horiz-adv-x="1000" />

<glyph glyph-name="zoom-in" unicode="&#xe817;" d="M550 600h-100v-200h-200v-100h200v-200h100v200h200v100h-200c0 0 0 200 0 200z m-50 250c-275 0-500-224-500-500 0-275 225-500 500-500h400c55 0 100 45 100 100v400c0 276-224 500-500 500z m0-900c-220 0-400 180-400 400s180 400 400 400 400-179 400-400-179-400-400-400z" horiz-adv-x="1000" />

<glyph glyph-name="cancel-1" unicode="&#xe818;" d="M123 654l181-181 181 181 123-124-182-178 183-184-124-121-181 182-181-182-123 122 183 183-182 178z" horiz-adv-x="609" />

<glyph glyph-name="phone-circled" unicode="&#xe819;" d="M0 350q0 207 147 354t353 146 354-146 146-354-146-354-354-146-353 146-147 354z m199 162q-4-51 41-142 71-133 229-248 107-71 193-73 29 0 47 16l84 86q10 10 8 23t-16 24l-123 72q-19 12-45-6l-35-37q-6-6-18-2-11 2-24 8t-25 16-21 16-21 21-20 17q-64 61-80 119 0 4 4 10l31 31q18 18 8 43l-68 129q-12 18-28 16-9 0-19-8l-84-86q-18-16-18-45z" horiz-adv-x="1000" />

<glyph glyph-name="docs" unicode="&#xe81a;" d="M970 480q38-10 30-46l-150-556q-4-16-18-23t-30-3l-406 110q-16 4-24 18t-4 28l24 92-180-48q-40-10-50 26l-160 602q-10 36 28 48l454 122q16 4 30-3t18-23l66-244z m-888 190l144-542 392 106-144 540z m702-742l132 492-298 82 76-282q10-34-28-46l-196-52-26-102z" horiz-adv-x="1001" />

<glyph glyph-name="chart-pie" unicode="&#xe81b;" d="M368 770l0-368-368 0q18 146 121 249t247 119z m106 0q156-20 261-139t105-279q0-174-123-298t-299-124q-160 0-278 105t-140 263l424 0q20 0 35 14t15 36l0 422z" horiz-adv-x="840" />

<glyph glyph-name="database" unicode="&#xe81c;" d="M686 208q14 20 14-2l0-100q0-74-104-135t-246-61q-140 0-245 61t-105 135l0 100q0 8 4 10t10-8q32-52 125-86t211-34 211 34 125 86z m2 254q8 16 12 0l0-116q0-68-102-114t-248-46q-144 0-247 46t-103 114l0 116q0 20 14 0 30-46 124-75t212-29 212 29 126 75z m-338 328q144 0 247-39t103-93l0-64q0-58-103-99t-247-41-247 41-103 99l0 64q0 54 103 93t247 39z" horiz-adv-x="700" />

<glyph glyph-name="mouse" unicode="&#xe81d;" d="M551 130q28-80-17-157t-139-111q-94-28-175 9t-103 117l-106 384q-20 68 6 134t84 106l-96 186q-14 34 14 48 30 18 48-14l98-192q80 22 154-16t102-116z m-324 274q28 10 40 36t4 54q-10 28-35 41t-53 5q-28-10-40-36t-4-54q10-28 35-41t53-5z" horiz-adv-x="561" />

<glyph glyph-name="credit-card" unicode="&#xe81e;" d="M900 700q42 0 71-30t29-70l0-500q0-42-29-71t-71-29l-800 0q-40 0-70 29t-30 71l0 500q0 40 30 70t70 30l800 0z m0-600l0 300-800 0 0-300 800 0z m0 450l0 50-800 0 0-50 800 0z m-700-256l30 0 0-30-30 0 0 30z m180-60l30 0 0 30 30 0 0 30 60 0 0-30-30 0 0-30-30 0 0-30-60 0 0 30z m120-30l-30 0 0 30 30 0 0-30z m-150 0l-60 0 0 30 60 0 0-30z m30 60l0-30-30 0 0 60 60 0 0-30-30 0z m-120-30l0-30-60 0 0 30 30 0 0 30 30 0 0 30 60 0 0-30-30 0 0-30-30 0z" horiz-adv-x="1000" />

<glyph glyph-name="archive" unicode="&#xe81f;" d="M840 600l0-50-696 0 0 50q0 22 13 35t25 15l608 0q6 0 14-1t22-14 14-35z m-148 150q6 0 14-1t22-14 14-35l-498 0q0 22 13 35t25 15l410 0z m248-200q34-32 38-46 6-18 0-54l-76-450q-4-22-20-35t-28-15l-710 0q-52 0-60 50-6 26-39 223t-39 227q-10 22-3 44t10 26 21 20l10 10 30 30 0-80 836 0 0 80z m-248-270l0 100-70 0 0-80-260 0 0 80-68 0 0-100q0-50 48-50l300 0q22 0 35 12t13 24z" horiz-adv-x="981" />

<glyph glyph-name="gift" unicode="&#xe820;" d="M518 93v400h-179v-400q0-14 10-21t26-8h107q16 0 26 8t10 21z m-255 471h109l-70 90q-15 17-39 17-22 0-38-15t-15-38 15-38 38-16z m384 54q0 22-15 38t-38 15q-24 0-39-17l-69-90h108q22 0 38 16t15 38z m210-143v-179q0-7-5-12t-13-5h-53v-233q0-22-16-37t-38-16h-607q-22 0-38 16t-16 37v233h-53q-8 0-13 5t-5 12v179q0 8 5 13t13 5h245q-51 0-88 36t-37 89 37 88 88 37q60 0 94-43l72-92 71 92q34 43 94 43 52 0 88-37t37-88-37-89-88-36h245q8 0 13-5t5-13z" horiz-adv-x="857.1" />

<glyph glyph-name="favorite_p" unicode="&#xe82a;" d="M580 566c-61 0-117-24-160-68l-20-21-21 21c-43 44-99 68-160 68-59 0-114-24-155-66-86-88-85-232 2-321l313-319c5-5 13-8 21-8 7 0 15 3 20 8l313 319c87 89 88 233 2 321-41 42-96 66-155 66z m-334-134c-60 0-109-49-109-109 0-14-11-25-25-25-14 0-25 11-25 25 0 87 72 159 159 159 14 0 25-11 25-25s-11-25-25-25z m692 353c-40 41-94 63-151 63-59 0-114-23-155-65l-20-20-20 20c-41 42-96 65-155 65-57 0-111-22-151-63-47-48-68-114-61-178 31-1 61-6 88-17-14 47-3 100 33 136 24 25 56 39 91 39 36 0 70-15 95-41l20-20 60-61 60 61 19 20c26 26 60 41 96 41 35 0 67-14 91-39 52-53 51-140-2-194l-65-66c15-29 24-60 28-92l97 99c85 87 86 227 2 312z" horiz-adv-x="1000" />

<glyph glyph-name="key162" unicode="&#xe82b;" d="M685 850c-174 0-315-141-315-315 0-37 8-74 19-111l-389-389v-185h185v111h111v111h111l167 167c33-11 70-19 111-19 174 0 315 141 315 315s-141 315-315 315z m93-333c-63 0-111 48-111 111s48 111 111 111 111-48 111-111-48-111-111-111z" horiz-adv-x="1000" />

<glyph glyph-name="user1" unicode="&#xe82d;" d="M500 850c-276 0-500-224-500-500 0-276 224-500 500-500 276 0 500 224 500 500 0 276-224 500-500 500z m288-776c0 12 0 20 0 20 0 68-78 93-121 111-15 7-44 21-73 35-10 5-19 18-20 29l-4 32c23 21 43 51 47 83h5c8 0 16 6 17 14l8 49c1 11-9 17-17 17 0 1 0 2 0 3 1 6 2 12 2 17 1 5 1 10 1 14 1 24-3 44-9 55-7 16-17 32-31 45-39 37-84 52-123 22-26 4-57-8-80-34-12-14-20-31-23-47-3-10-5-23-6-36 0-15 1-28 4-39-8-1-15-7-15-17l8-49c1-8 8-14 16-14h5c7-35 26-64 47-84l-4-31c-1-12-10-24-20-29-28-14-56-28-73-35-40-16-121-43-121-111v-15c-66 71-107 166-107 271 0 220 179 399 399 399 220 0 399-179 399-399 0-107-42-204-111-276z" horiz-adv-x="1000" />

<glyph glyph-name="phone_3" unicode="&#xe838;" d="M760 189c40-40 80-80 119-119 33-34 33-74 0-108-23-23-46-45-68-68-31-35-69-46-114-44-65 4-124 25-182 53-127 62-236 148-328 257-67 80-123 168-160 266-17 48-30 97-26 149 2 32 14 59 38 81 25 24 49 49 74 74 32 32 73 32 106 0 20-20 40-40 60-60 19-19 39-38 58-58 34-34 34-74 0-108-24-25-48-50-73-73-7-7-7-12-4-20 17-39 40-74 66-106 54-66 114-124 186-169 15-9 32-17 48-25 8-5 14-3 21 3 24 25 49 50 73 75 33 32 74 32 106 0z m-39 165c-10 55-35 104-75 144-41 41-93 67-151 75l11 77c74-10 142-44 195-97 51-51 84-115 96-186z m120 334c84-84 139-190 159-307l-77-13c-17 101-65 192-137 265-77 76-174 125-281 140l11 77c124-17 236-73 325-162z" horiz-adv-x="1000" />

<glyph glyph-name="hit" unicode="&#xe83e;" d="M782 494l0 0 0 0c46 15 71 64 56 110-14 46-64 71-109 56l-1 0 1 0c28 39 19 94-20 122-39 28-93 20-122-19l0-1v1c0 48-39 87-87 87s-87-39-87-87v0l0 0c-29 39-83 47-122 19-39-28-48-83-19-122l0 0 0 0c-46 15-95-10-110-56-15-46 10-95 56-110l0 0 0 0c-46-15-71-64-56-110 12-37 46-60 83-60 8 0 18 1 27 4l0 0 0 0c-22-30-22-68-4-97l-103-259c-4-10-1-21 6-29 8-7 19-9 29-5l127 56 55-128c4-10 13-16 24-16h0c11 0 20 7 24 16l70 176 69-176c4-9 14-16 24-16h1c10 0 20 6 24 16l54 128 127-56c4-1 7-2 11-2 0 0 0 0 1 0 14 0 26 12 26 26 0 6-2 11-5 15l-101 253c19 29 19 68-3 98l0 0 0 0c9-3 18-4 27-4 37 0 71 23 83 60 15 46-10 95-56 110z m-377-549l-40 94c-3 6-8 11-14 14-3 1-7 2-10 2-4 0-7-1-10-2l-94-41 73 184c11-4 21-6 32-6 27 0 54 12 71 36l0 0v0c0-43 30-78 70-86l-78-195z m264 108c-7 2-14 3-20 0-7-3-12-8-15-14l-40-94-66 167 15 38c26 15 44 43 44 76v0l0 0c17-24 44-36 71-36 10 0 21 2 31 6l73-184-93 41z m-169 173c-148 0-268 120-268 268 0 148 120 268 268 268s268-120 268-268c0-148-120-268-268-268z m0 484c-119 0-216-97-216-216s97-215 216-215c119 0 216 96 216 215 0 119-97 216-216 216z" horiz-adv-x="1000" />

<glyph glyph-name="noimage" unicode="&#xe847;" d="M0 850l0-143 143 0 0 143-143 0z m286 0l0-143 143 0 0 143-143 0z m285 0l0-143 143 0 0 143-143 0z m286 0l0-143 143 0 0 143-143 0z m-857-286l0-143 143 0 0 143-143 0z m857 0l0-143 143 0 0 143-143 0z m-857-285l0-143 143 0 0 143-143 0z m857 0l0-143 143 0 0 143-143 0z m-857-286l0-143 143 0 0 143-143 0z m286 0l0-143 143 0 0 143-143 0z m285 0l0-143 143 0 0 143-143 0z m286 0l0-143 143 0 0 143-143 0z" horiz-adv-x="1000" />

<glyph glyph-name="arr_left" unicode="&#xe853;" d="M365 350l413-413c9-9 9-25 0-34l-46-46c-4-4-11-7-17-7s-13 3-17 7l-476 476c-9 9-9 25 0 34l476 476c4 4 11 7 17 7s13-3 17-7l46-46c9-9 9-25 0-34z" horiz-adv-x="1000" />

<glyph glyph-name="arr_right" unicode="&#xe854;" d="M778 367c9-9 9-25 0-34l-476-476c-5-5-11-7-17-7-6 0-12 2-17 7l-46 46c-4 4-7 11-7 17s3 13 7 17l413 413-413 413c-4 4-7 11-7 17s3 13 7 17l46 46c9 9 25 9 34 0z" horiz-adv-x="1000" />

<glyph glyph-name="menu" unicode="&#xe857;" d="M968 831c18 0 32-14 32-32v-144c0-18-14-32-32-32h-936c-17 0-32 14-32 32v144c0 18 15 32 32 32h936z m0-377c18 0 32-14 32-32v-144c0-18-14-32-32-32h-936c-17 0-32 14-32 32v144c0 18 15 32 32 32h936z m0-377c18 0 32-14 32-32v-144c0-18-14-32-32-32h-936c-17 0-32 14-32 32v144c0 18 15 32 32 32h936z" horiz-adv-x="1000" />

<glyph glyph-name="percentage18" unicode="&#xe864;" d="M384 469c-22 0-40-18-40-40 0-22 18-40 40-40 22 0 40 18 40 40 0 22-18 40-40 40z m232-158c-22 0-40-18-40-40 0-22 18-40 40-40 22 0 40 18 40 40 0 22-18 40-40 40z m-116 356c-175 0-317-142-317-317 0-175 142-317 317-317s317 142 317 317c0 175-142 317-317 317z m-207-238c0 50 41 90 91 90 50 0 90-40 90-90 0-50-40-90-90-90-50 0-91 40-91 90z m142-261c-4-9-13-14-22-14-4 0-8 1-12 3-12 6-17 21-11 34l174 341c6 13 21 17 34 11 12-6 17-21 11-34l-174-341z m181 13c-49 0-90 40-90 90 0 50 41 90 90 90 50 0 91-40 91-90 0-50-41-90-91-90z m361 227l-53 55c-11 12-16 29-14 45l10 76c6 44-24 85-68 93l-75 14c-16 3-30 13-38 28l-37 67c-21 39-69 55-109 35l-69-32c-15-8-33-8-48 0l-68 32c-41 20-89 4-110-35l-37-67c-7-15-22-25-38-28l-75-14c-44-8-74-49-68-93l10-76c2-16-3-33-14-45l-53-55c-31-33-31-83 0-116l53-55c11-12 16-29 14-45l-10-76c-6-44 24-85 68-93l75-14c16-3 31-13 38-28l37-67c21-39 69-55 110-35l68 32c15 8 33 8 48 0l69-32c40-20 88-4 109 35l37 67c8 15 22 25 38 28l75 14c44 8 74 49 68 93l-10 76c-2 16 3 33 14 45l53 55c31 33 31 83 0 116z m-477-441c-212 0-383 171-383 383 0 212 171 383 383 383 212 0 383-171 383-383 0-212-171-383-383-383z" horiz-adv-x="1000" />

<glyph glyph-name="home" unicode="&#xf118;" d="M989 389c13-11 15-31 3-44-6-7-14-11-23-11-8 0-15 3-21 8l-448 389-448-389c-13-11-33-10-44 3-12 13-10 33 3 44l177 153v167c0 35 28 63 62 63 35 0 63-28 63-63v-58l167 145c11 10 29 10 41 0z m-449 181l312-256c15-12 23-30 23-48v-307c0-34-28-62-62-62h-188v312h-250v-312h-187c-35 0-63 28-63 62v307c0 18 8 36 23 48l312 256c12 10 26 14 40 14 14 0 28-4 40-14z" horiz-adv-x="1000" />

<glyph glyph-name="mail" unicode="&#xf11f;" d="M958 695c23 0 42-19 42-42v-606c0-23-19-42-42-42h-916c-23 0-42 19-42 42v606c0 23 19 42 42 42h916z m-306-374c-3 2 1 6 1 6l283 255c10 8 13 23 7 34-4 7-11 10-18 10-5 0-10-2-15-5l-401-352c-2-2-6-3-9-3-4 0-7 1-10 3l-401 352c-4 3-10 5-15 5-7 0-14-3-17-10-7-11-4-26 7-34l282-254s4-5 0-8c-76-52-276-206-276-206-8-5-9-19-5-27 4-8 19-13 27-8 0 0 212 154 293 210 3 2 6-1 6-1l91-72c4-4 11-6 18-6 6 0 13 2 18 6l89 72s4 3 9 0c81-55 294-209 294-209 8-5 20 0 24 8 4 8 4 22-4 27 0 0-200 155-278 207z" horiz-adv-x="1000" />
</font>
</defs>
</svg>
